<svg xmlns="http://www.w3.org/2000/svg" xmlns:xlink="http://www.w3.org/1999/xlink" width="500" zoomAndPan="magnify" viewBox="0 0 375 374.999991" height="500" preserveAspectRatio="xMidYMid meet" version="1.0"><defs><g/><clipPath id="id1"><path d="M 75.378906 129.179688 L 183.378906 129.179688 L 183.378906 237.929688 L 75.378906 237.929688 Z M 75.378906 129.179688 " clip-rule="nonzero"/></clipPath></defs><g clip-path="url(#id1)"><path fill="#ff914d" d="M 182.300781 196.308594 C 181.199219 195.574219 179.699219 195.921875 178.945312 197.011719 L 168.921875 211.492188 C 168.167969 212.582031 166.664062 212.925781 165.5625 212.191406 C 165.292969 212.011719 165.070312 211.789062 164.890625 211.519531 C 164.710938 211.25 164.59375 210.957031 164.53125 210.636719 C 164.46875 210.320312 164.472656 210.003906 164.539062 209.6875 C 164.605469 209.371094 164.730469 209.078125 164.917969 208.8125 L 175.03125 194.199219 C 175.210938 193.9375 175.335938 193.648438 175.402344 193.339844 C 175.46875 193.027344 175.472656 192.714844 175.414062 192.398438 C 175.359375 192.085938 175.242188 191.792969 175.070312 191.527344 C 174.898438 191.257812 174.679688 191.035156 174.417969 190.851562 C 174.15625 190.667969 173.867188 190.546875 173.558594 190.476562 C 173.246094 190.410156 172.933594 190.40625 172.617188 190.460938 C 172.304688 190.519531 172.015625 190.632812 171.746094 190.804688 C 171.476562 190.976562 171.253906 191.195312 171.070312 191.457031 L 161 206 C 160.246094 207.09375 158.742188 207.4375 157.640625 206.703125 C 157.371094 206.523438 157.148438 206.300781 156.96875 206.03125 C 156.789062 205.761719 156.667969 205.46875 156.609375 205.148438 C 156.546875 204.832031 156.550781 204.515625 156.617188 204.199219 C 156.683594 203.878906 156.808594 203.589844 156.992188 203.324219 L 167.0625 188.777344 C 167.816406 187.6875 167.613281 186.160156 166.535156 185.386719 C 166.273438 185.199219 165.984375 185.066406 165.671875 184.996094 C 165.355469 184.921875 165.039062 184.914062 164.722656 184.96875 C 164.402344 185.023438 164.105469 185.136719 163.835938 185.308594 C 163.5625 185.484375 163.332031 185.703125 163.148438 185.96875 L 151.664062 202.5625 C 151.308594 203.078125 150.996094 203.617188 150.722656 204.179688 C 150.453125 204.742188 150.226562 205.324219 150.046875 205.921875 C 149.867188 206.523438 149.734375 207.132812 149.648438 207.75 C 149.5625 208.371094 149.523438 208.992188 149.535156 209.617188 C 149.546875 210.242188 149.605469 210.863281 149.714844 211.480469 C 149.820312 212.097656 149.976562 212.699219 150.175781 213.292969 C 150.378906 213.882812 150.625 214.457031 150.917969 215.011719 C 151.207031 215.5625 151.539062 216.09375 151.910156 216.59375 C 148.976562 220.558594 143.949219 225.664062 137.585938 225.664062 C 122.183594 225.664062 120.78125 198.839844 120.78125 198.839844 L 121.183594 198.839844 C 140.402344 198.839844 155.988281 183.246094 155.988281 164.015625 C 155.988281 144.78125 140.402344 129.1875 121.183594 129.1875 L 88.078125 129.1875 C 87.246094 129.1875 86.417969 129.269531 85.601562 129.433594 C 84.785156 129.59375 83.988281 129.835938 83.21875 130.15625 C 82.449219 130.476562 81.714844 130.867188 81.023438 131.332031 C 80.328125 131.792969 79.6875 132.320312 79.097656 132.910156 C 78.507812 133.5 77.980469 134.144531 77.519531 134.835938 C 77.054688 135.53125 76.664062 136.261719 76.34375 137.035156 C 76.027344 137.804688 75.785156 138.597656 75.621094 139.417969 C 75.460938 140.234375 75.378906 141.0625 75.378906 141.894531 L 75.378906 152.78125 C 75.378906 153.199219 75.417969 153.609375 75.492188 154.019531 C 75.566406 154.429688 75.679688 154.828125 75.828125 155.21875 C 75.976562 155.609375 76.160156 155.980469 76.375 156.335938 C 76.589844 156.691406 76.839844 157.023438 77.117188 157.335938 C 77.394531 157.644531 77.695312 157.929688 78.027344 158.183594 C 78.355469 158.4375 78.703125 158.660156 79.074219 158.851562 C 79.445312 159.042969 79.828125 159.199219 80.226562 159.320312 C 80.625 159.441406 81.03125 159.523438 81.445312 159.570312 L 84.839844 159.953125 C 86.953125 152.070312 95.359375 146.164062 105.453125 146.164062 C 117.140625 146.164062 134.984375 154.0625 134.984375 163.808594 C 134.984375 173.554688 117.140625 181.449219 105.453125 181.449219 C 95.8125 181.449219 87.765625 176.039062 85.21875 168.679688 L 81.5625 169.027344 C 81.144531 169.066406 80.734375 169.144531 80.328125 169.261719 C 79.921875 169.375 79.53125 169.527344 79.15625 169.714844 C 78.777344 169.90625 78.421875 170.125 78.085938 170.382812 C 77.75 170.636719 77.441406 170.917969 77.15625 171.230469 C 76.871094 171.542969 76.621094 171.878906 76.398438 172.234375 C 76.175781 172.59375 75.992188 172.96875 75.839844 173.363281 C 75.6875 173.757812 75.570312 174.160156 75.496094 174.574219 C 75.417969 174.988281 75.378906 175.40625 75.378906 175.828125 L 75.378906 226.4375 C 75.378906 227.191406 75.453125 227.9375 75.597656 228.679688 C 75.746094 229.417969 75.964844 230.136719 76.253906 230.832031 C 76.542969 231.53125 76.894531 232.191406 77.3125 232.820312 C 77.730469 233.445312 78.207031 234.027344 78.742188 234.558594 C 79.273438 235.09375 79.851562 235.570312 80.480469 235.988281 C 81.105469 236.40625 81.769531 236.761719 82.464844 237.050781 C 83.160156 237.339844 83.878906 237.554688 84.617188 237.703125 C 85.355469 237.851562 86.101562 237.925781 86.855469 237.925781 C 87.609375 237.925781 88.355469 237.851562 89.09375 237.703125 C 89.832031 237.558594 90.546875 237.339844 91.242188 237.050781 C 91.941406 236.761719 92.601562 236.410156 93.226562 235.992188 C 93.851562 235.574219 94.433594 235.097656 94.964844 234.566406 C 95.5 234.035156 95.972656 233.457031 96.394531 232.828125 C 96.8125 232.203125 97.164062 231.542969 97.453125 230.847656 C 97.742188 230.152344 97.960938 229.433594 98.109375 228.695312 C 98.257812 227.957031 98.332031 227.210938 98.335938 226.457031 L 98.382812 198.839844 C 102.582031 218.855469 115.941406 239.109375 135.988281 237.871094 C 147.640625 237.148438 153.5 227.789062 158.109375 220.902344 C 162.972656 222.363281 168.425781 220.679688 171.464844 216.28125 L 182.953125 199.691406 C 183.136719 199.425781 183.261719 199.132812 183.328125 198.816406 C 183.394531 198.5 183.398438 198.179688 183.335938 197.863281 C 183.273438 197.546875 183.15625 197.253906 182.976562 196.984375 C 182.796875 196.714844 182.570312 196.488281 182.300781 196.308594 Z M 182.300781 196.308594 " fill-opacity="1" fill-rule="nonzero"/></g><g fill="#ff914d" fill-opacity="1"><g transform="translate(173.828928, 236.120682)"><g><path d="M 11.171875 0.378906 C 15.84375 0.378906 18.695312 -0.949219 19.605469 -3.761719 C 20.175781 -5.472656 18.769531 -6.535156 16.792969 -6.535156 C 15.160156 -6.535156 15.007812 -5.472656 13.5625 -4.519531 C 13.03125 -4.21875 12.234375 -4.027344 11.207031 -4.027344 C 9.234375 -4.027344 7.789062 -4.976562 7.636719 -8.890625 L 19.757812 -8.890625 C 20.0625 -8.890625 20.289062 -9.117188 20.328125 -9.5 C 21.050781 -16.566406 18.238281 -21.351562 11.171875 -21.351562 C 4.597656 -21.351562 1.367188 -17.820312 1.367188 -10.828125 C 1.367188 -3.34375 4.371094 0.378906 11.171875 0.378906 Z M 7.675781 -12.460938 C 7.597656 -15.539062 8.890625 -17.023438 10.867188 -17.023438 C 13.070312 -17.023438 13.980469 -15.503906 13.90625 -12.460938 Z M 7.675781 -12.460938 "/></g></g></g><g fill="#ff914d" fill-opacity="1"><g transform="translate(195.788445, 236.120682)"><g><path d="M 10.105469 0.457031 C 16.1875 0.457031 19.378906 -1.898438 19.378906 -6.574219 C 19.378906 -14.96875 7.902344 -10.488281 7.902344 -15.121094 C 7.902344 -16.300781 8.511719 -16.984375 10.5625 -16.984375 C 11.664062 -16.984375 12.386719 -16.792969 12.804688 -16.375 C 13.945312 -15.085938 14.132812 -14.132812 15.917969 -14.132812 L 16.070312 -14.132812 C 17.859375 -14.132812 19.226562 -15.3125 18.617188 -17.363281 C 17.78125 -20.023438 15.121094 -21.351562 10.5625 -21.351562 C 4.597656 -21.351562 1.632812 -19.226562 1.632812 -14.894531 C 1.632812 -5.964844 13.070312 -10.636719 13.070312 -5.738281 C 13.070312 -4.597656 12.234375 -3.761719 9.839844 -3.761719 C 8.585938 -3.761719 7.863281 -3.953125 7.484375 -4.445312 C 6.382812 -5.890625 6.230469 -6.878906 4.40625 -6.878906 L 4.292969 -6.878906 C 2.507812 -6.878906 1.101562 -5.660156 1.785156 -3.570312 C 2.621094 -0.910156 5.207031 0.457031 10.105469 0.457031 Z M 10.105469 0.457031 "/></g></g></g><g fill="#ff914d" fill-opacity="1"><g transform="translate(216.608188, 236.120682)"><g><path d="M 12.042969 -4.597656 C 10.21875 -4.558594 9.421875 -5.585938 9.421875 -7.789062 C 9.421875 -9.765625 9.382812 -12.007812 9.460938 -14.171875 C 9.460938 -14.855469 9.5 -15.503906 9.5 -16.1875 L 12.460938 -16.222656 C 14.363281 -16.222656 15.386719 -17.058594 15.386719 -18.617188 C 15.386719 -20.175781 14.25 -21.011719 12.160156 -21.011719 L 9.5 -21.011719 L 9.5 -24.355469 C 9.5 -26.367188 8.09375 -27.242188 5.964844 -26.558594 C 4.179688 -25.988281 3.304688 -24.8125 3.304688 -22.910156 C 3.304688 -22.265625 3.34375 -21.65625 3.34375 -21.011719 L 1.746094 -21.011719 C 0.722656 -21.011719 0.113281 -20.136719 0.113281 -18.578125 C 0.113281 -17.023438 1.253906 -16.148438 3.34375 -16.148438 L 3.382812 -16.148438 L 3.382812 -14.171875 C 3.382812 -11.742188 3.382812 -9.269531 3.34375 -7.027344 C 3.230469 -1.519531 6.269531 0.457031 10.980469 0.457031 C 11.855469 0.457031 12.726562 0.378906 13.488281 0.226562 C 15.160156 -0.113281 15.804688 -1.367188 15.652344 -3 C 15.503906 -4.558594 14.25 -4.671875 12.042969 -4.597656 Z M 12.042969 -4.597656 "/></g></g></g><g fill="#ff914d" fill-opacity="1"><g transform="translate(232.944845, 236.120682)"><g><path d="M 7.941406 0.378906 C 10.070312 0.378906 12.121094 -0.34375 13.640625 -1.824219 C 13.679688 -1.519531 13.714844 -1.214844 13.832031 -0.910156 C 13.980469 -0.304688 15.007812 0 16.945312 0 L 17.289062 0 C 19.339844 0 20.402344 -1.179688 20.289062 -3.304688 C 20.175781 -5.890625 20.175781 -9.195312 20.175781 -13.753906 C 20.175781 -18.84375 17.363281 -21.351562 11.703125 -21.351562 C 6.15625 -21.351562 3.230469 -19.871094 2.355469 -16.90625 C 1.746094 -14.816406 3.304688 -13.601562 5.433594 -13.601562 L 5.8125 -13.601562 C 7.675781 -13.601562 7.828125 -14.628906 8.929688 -16.300781 C 9.382812 -16.984375 10.21875 -17.25 11.207031 -17.25 C 12.878906 -17.25 13.640625 -16.414062 13.640625 -13.640625 L 13.640625 -12.347656 C 5.089844 -12.578125 1.179688 -10.105469 1.179688 -5.355469 C 1.179688 -1.367188 4.179688 0.378906 7.941406 0.378906 Z M 9.953125 -3.914062 C 8.167969 -3.914062 7.21875 -4.9375 7.21875 -6.382812 C 7.21875 -8.816406 10.257812 -9.234375 13.714844 -9.308594 L 13.714844 -5.890625 C 12.84375 -4.636719 11.664062 -3.914062 9.953125 -3.914062 Z M 9.953125 -3.914062 "/></g></g></g><g fill="#ff914d" fill-opacity="1"><g transform="translate(255.056328, 236.120682)"><g><path d="M 10.90625 0.378906 C 15.917969 0.378906 18.960938 -2.886719 19.871094 -13.03125 C 20.328125 -18.199219 19.113281 -21.011719 17.171875 -21.011719 C 15.234375 -21.011719 14.210938 -19.757812 14.25 -17.402344 C 14.476562 -6.574219 13.414062 -4.863281 11.359375 -4.863281 C 9.421875 -4.863281 8.664062 -7.523438 8.550781 -17.515625 C 8.550781 -19.796875 7.410156 -21.011719 5.320312 -21.011719 L 4.976562 -21.011719 C 2.886719 -21.011719 1.671875 -19.796875 1.746094 -17.554688 C 2.128906 -3.835938 5.089844 0.378906 10.90625 0.378906 Z M 10.90625 0.378906 "/></g></g></g><g fill="#ff914d" fill-opacity="1"><g transform="translate(276.939856, 236.120682)"><g><path d="M 11.132812 0.457031 C 17.589844 0.457031 20.746094 -3.152344 20.746094 -10.449219 C 20.746094 -17.707031 17.589844 -21.351562 11.132812 -21.351562 C 4.597656 -21.351562 1.367188 -17.707031 1.367188 -10.449219 C 1.367188 -3.152344 4.597656 0.457031 11.132812 0.457031 Z M 11.132812 -4.179688 C 9.195312 -4.179688 7.863281 -5.394531 7.863281 -10.449219 C 7.863281 -15.085938 8.738281 -16.71875 11.132812 -16.71875 C 13.335938 -16.71875 14.25 -15.085938 14.25 -10.449219 C 14.25 -5.394531 12.917969 -4.179688 11.132812 -4.179688 Z M 11.132812 -4.179688 "/></g></g></g></svg>